<?xml version="1.0" encoding="UTF-8" standalone="no"?>
<svg
   xmlns:dc="http://purl.org/dc/elements/1.1/"
   xmlns:cc="http://creativecommons.org/ns#"
   xmlns:rdf="http://www.w3.org/1999/02/22-rdf-syntax-ns#"
   xmlns:svg="http://www.w3.org/2000/svg"
   xmlns="http://www.w3.org/2000/svg"
   id="svg5181"
   version="1.1"
   viewBox="0 0 63.695129 13.113126"
   height="13.113126mm"
   width="63.695129mm">
  <defs
     id="defs5175" />
  <metadata
     id="metadata5178">
    <rdf:RDF>
      <cc:Work
         rdf:about="">
        <dc:format>image/svg+xml</dc:format>
        <dc:type
           rdf:resource="http://purl.org/dc/dcmitype/StillImage" />
        <dc:title></dc:title>
      </cc:Work>
    </rdf:RDF>
  </metadata>
  <g
     transform="translate(-33.3662,-53.642636)"
     id="layer1">
    <g
       id="g1493">
      <g
         aria-label="B E N F"
         style="font-weight:400;font-size:12.69999981px;font-family:'Steppes TT', 'Steppes TT_MSFontService', sans-serif;fill:#ffffff;fill-opacity:1;stroke-width:0.26458332"
         id="text855">
        <path
           d="m 50.33206,64.672249 v -9.090918 h 6.058545 q 0.985986,0 1.550293,0.638721 0.570508,0.63872 0.570508,1.556494 0,0.74414 -0.347266,1.184424 -0.347265,0.440283 -0.58291,0.58291 0.02481,0 0.291455,0.198437 0.266651,0.198438 0.533301,0.502295 0.272851,0.297656 0.489892,0.799951 0.223243,0.502295 0.223243,1.097608 0,0.620117 -0.297657,1.209228 -0.291455,0.58291 -0.787548,0.954981 -0.489893,0.365869 -1.035596,0.365869 z"
           style="font-weight:400;font-size:12.69999981px;font-family:'Steppes TT', 'Steppes TT_MSFontService', sans-serif;fill:#ffffff;fill-opacity:1;stroke-width:0.26458332"
           id="path854" />
        <path
           d="m 69.205664,61.801106 h 2.505273 v 2.871143 h -8.458398 v -9.090918 h 3.032373 v 3.131592 h 2.920752 z"
           style="fill:#ffffff;fill-opacity:1;stroke-width:0.26458332"
           id="path856" />
        <path
           d="m 75.85332,64.672249 v -9.090918 h 1.5875 q 0.911572,0 1.810742,0.347266 0.905371,0.341064 1.568896,0.880566 0.669727,0.533301 0.948779,1.091406 v -2.319238 h 2.709912 v 9.090918 z"
           style="fill:#ffffff;fill-opacity:1;stroke-width:0.26458332"
           id="path858" />
        <path
           d="m 97.061329,55.581331 v 2.864941 h -2.505274 v 3.088184 h -2.920752 v 3.137793 H 88.60293 v -9.090918 z"
           style="fill:#ffffff;fill-opacity:1;stroke-width:0.26458332"
           id="path860" />
      </g>
      <path
         style="fill:#ffffff;fill-rule:evenodd;stroke-width:0.26458332"
         id="path857"
         d="m 36.005988,60.199199 3.916833,3.916831 3.916831,-3.916831 z m 3.916775,-6.556563 6.55656,6.556563 -6.55656,6.556563 -6.556563,-6.556563 z" />
    </g>
  </g>
</svg>
