<?xml version="1.0" encoding="UTF-8" standalone="no"?>
<svg
   xmlns:dc="http://purl.org/dc/elements/1.1/"
   xmlns:cc="http://creativecommons.org/ns#"
   xmlns:rdf="http://www.w3.org/1999/02/22-rdf-syntax-ns#"
   xmlns:svg="http://www.w3.org/2000/svg"
   xmlns="http://www.w3.org/2000/svg"
   id="svg5764"
   version="1.1"
   viewBox="0 0 63.695129 13.113126"
   height="13.113126mm"
   width="63.695129mm">
  <defs
     id="defs5758" />
  <metadata
     id="metadata5761">
    <rdf:RDF>
      <cc:Work
         rdf:about="">
        <dc:format>image/svg+xml</dc:format>
        <dc:type
           rdf:resource="http://purl.org/dc/dcmitype/StillImage" />
        <dc:title></dc:title>
      </cc:Work>
    </rdf:RDF>
  </metadata>
  <g
     transform="translate(-92.128626,-96.919627)"
     id="layer1">
    <g
       id="g1485">
      <g
         aria-label="B E N F"
         style="font-weight:400;font-size:12.69999981px;font-family:'Steppes TT', 'Steppes TT_MSFontService', sans-serif;fill:#363636;stroke-width:0.26458332"
         id="text861">
        <path
           d="m 109.09449,107.81694 v -9.090918 h 6.05854 q 0.98599,0 1.5503,0.638721 0.5705,0.638717 0.5705,1.556497 0,0.74414 -0.34726,1.18442 -0.34727,0.44028 -0.58291,0.58291 0.0248,0 0.29145,0.19844 0.26665,0.19844 0.5333,0.50229 0.27286,0.29766 0.4899,0.79995 0.22324,0.5023 0.22324,1.09761 0,0.62012 -0.29766,1.20923 -0.29145,0.58291 -0.78755,0.95498 -0.48989,0.36587 -1.03559,0.36587 z"
           style="font-weight:400;font-size:12.69999981px;font-family:'Steppes TT', 'Steppes TT_MSFontService', sans-serif;fill:#363636;stroke-width:0.26458332"
           id="path1470" />
        <path
           d="m 127.96809,104.9458 h 2.50528 v 2.87114 h -8.4584 v -9.090918 h 3.03237 v 3.131588 h 2.92075 z"
           style="stroke-width:0.26458332"
           id="path1472" />
        <path
           d="m 134.61575,107.81694 v -9.090918 h 1.5875 q 0.91157,0 1.81074,0.347266 0.90537,0.341065 1.5689,0.880566 0.66972,0.533306 0.94878,1.091406 v -2.319238 h 2.70991 v 9.090918 z"
           style="stroke-width:0.26458332"
           id="path1474" />
        <path
           d="m 155.82376,98.726022 v 2.864938 h -2.50528 v 3.08819 h -2.92075 v 3.13779 h -3.03237 v -9.090918 z"
           style="stroke-width:0.26458332"
           id="path1476" />
      </g>
      <path
         style="fill:#363636;fill-rule:evenodd;stroke-width:0.26458332"
         id="path863"
         d="m 94.768414,103.47619 3.916833,3.91683 3.916833,-3.91683 z m 3.916775,-6.556563 6.556561,6.556563 -6.556561,6.55656 -6.556563,-6.55656 z" />
    </g>
  </g>
</svg>
